<?xml version="1.0" encoding="utf-8"?>
<!-- Generator: Adobe Illustrator 24.1.0, SVG Export Plug-In . SVG Version: 6.00 Build 0)  -->
<svg version="1.1" id="Layer_1" xmlns="http://www.w3.org/2000/svg" xmlns:xlink="http://www.w3.org/1999/xlink" x="0px" y="0px"
	 viewBox="0 0 288.4 73.5" style="enable-background:new 0 0 288.4 73.5;" xml:space="preserve">
<style type="text/css">
	.st0{fill:#FFFFFF;}
</style>
<path class="st0" d="M33.4,20.5c-0.5,0-1,0.4-1,0.9l-3.8,18.1c0,0.7,0.2,1.3,0.7,1.8c0.6,0.4,1.2,0.6,1.9,0.6h4.6
	c0.7,0,1.4-0.2,2-0.5c0.5-0.5,0.7-1.3,0.5-2l-3.8-18C34.4,20.8,34,20.4,33.4,20.5 M18.5,58.5c-0.3,0-0.6-0.2-0.8-0.4
	c-0.2-0.3-0.3-0.7-0.2-1l10.2-45.4c0.1-0.4,0.3-0.8,0.6-1.1c0.4-0.2,0.9-0.4,1.4-0.4h7.6c0.6,0,1.1,0.1,1.6,0.4
	c0.3,0.3,0.5,0.7,0.6,1.1L50,57.1c0.1,0.4,0,0.8-0.2,1.1c-0.3,0.2-0.8,0.3-1.2,0.3h-4.2c-0.5,0-1-0.2-1.4-0.5
	c-0.3-0.3-0.5-0.7-0.7-1.2l-1.6-6.6c-0.4-1.5-1.8-2.6-3.4-2.5h-7.8c-0.7,0-1.4,0.3-2,0.8c-0.5,0.5-0.8,1.1-1,1.8L25,57
	c-0.1,0.4-0.3,0.7-0.6,1c-0.4,0.3-1,0.5-1.5,0.5L18.5,58.5L18.5,58.5z"/>
<path class="st0" d="M1.6,73.5c-0.4,0-0.8-0.2-1.1-0.5C0.2,72.7,0,72.3,0,71.9V2.7c0-0.5,0.1-0.9,0.4-1.3c0.3-0.3,0.8-0.5,1.2-0.5
	h4.5c0.5,0,1,0.2,1.4,0.5C7.8,1.8,8,2.2,8,2.7v60.1c0,0.8,0.3,1.6,0.8,2.3c0.6,0.5,1.3,0.8,2.1,0.8h275.9c0.4,0,0.8,0.1,1.1,0.4
	c0.3,0.4,0.4,0.9,0.4,1.4v4.1c0,0.5-0.2,0.9-0.5,1.2c-0.3,0.3-0.8,0.5-1.2,0.5L1.6,73.5"/>
<path class="st0" d="M86.6,60.5c-5.7,0-10.3-2.3-12.8-6.4c-2.1-3.7-2.8-6.5-2.8-15.8V21.6c0-9.7,0.6-12.7,3.3-16.2S81.3,0,86.5,0
	c9.8,0,15.6,6.4,15.7,17.5c0,0.4-0.2,0.8-0.6,1.1c-0.3,0.3-0.8,0.5-1.3,0.5h-4.3c-0.4,0-0.8-0.2-1.1-0.5c-0.3-0.4-0.6-0.8-0.7-1.3
	c-0.3-6.5-3.1-10-7.8-10C80.3,7.3,79,12,79,19.7v19.9c0,8.6,1.2,13.5,7.5,13.5c5.1,0,7.8-3.9,7.9-11.6c0-0.4,0.1-0.9,0.4-1.2
	c0.4-0.3,0.8-0.5,1.3-0.5h4.3c0.5,0,1,0.1,1.4,0.5c0.3,0.4,0.5,0.8,0.5,1.3C102.3,54,96.8,60.5,86.6,60.5 M124.2,7.5
	c-6.4,0.1-7.7,4.3-7.7,12.1V41c0,7.6,1.2,12,7.7,12s7.7-4.6,7.7-12V19.6c0-7.5-1.2-12.1-7.5-12.1L124.2,7.5 M124.2,60.5
	c-5.6-0.1-10-2-12.4-5.5s-3.3-7.1-3.3-13.8V19.4c0-6.7,1-10.7,3.3-13.9c2.7-3.6,6.8-5.4,12.4-5.4c5.6,0,10,2,12.5,5.4
	s3.3,7.3,3.3,13.9v21.7c0,6.6-1,10.6-3.3,13.8c-2.8,3.6-7,5.5-12.2,5.5L124.2,60.5L124.2,60.5z M239.4,60.5c-5.4-0.1-9.6-1.9-11.9-5
	c-2.5-3.5-3.3-7-3.3-14.5V2.7c0-0.4,0.2-0.9,0.5-1.2c0.3-0.4,0.8-0.6,1.2-0.6h4.4c0.5,0,1,0.2,1.4,0.5c0.3,0.4,0.4,0.8,0.4,1.3v39.7
	c0,7.5,2.2,10.7,7.3,10.7s7.2-3.1,7.2-10.7V2.7c0-0.5,0.2-1,0.5-1.3c0.4-0.3,0.8-0.4,1.3-0.5h4.4c0.5,0,0.9,0.2,1.3,0.5
	c0.3,0.4,0.5,0.8,0.5,1.3v38.1c0,7.7-0.9,11.5-3.3,14.5c-2.6,3.3-6.5,5-11.5,5L239.4,60.5 M264,59.5c-0.5,0-0.9-0.2-1.3-0.5
	c-0.3-0.3-0.5-0.7-0.5-1.2V2.7c0.1-0.4,0.3-0.8,0.6-1.1c0.3-0.4,0.7-0.6,1.2-0.7h22.3c0.5,0,1,0.1,1.4,0.5c0.2,0.4,0.4,0.9,0.3,1.3
	v3.8c0,0.5-0.1,1-0.4,1.4c-0.4,0.2-0.8,0.4-1.2,0.4h-13.2c-0.8,0-1.6,0.3-2.2,0.8c-0.6,0.7-0.9,1.6-0.9,2.6v10.6
	c0,0.8,0.3,1.6,0.9,2.1c0.6,0.5,1.4,0.9,2.2,0.9h11.2c0.5,0,1,0.2,1.3,0.5c0.3,0.4,0.4,0.8,0.4,1.3v3.8c0,0.5-0.2,0.9-0.5,1.2
	c-0.3,0.3-0.7,0.4-1.1,0.5h-11.4c-0.8,0.1-1.5,0.4-2,0.9c-0.5,0.6-0.9,1.4-0.9,2.2v13.6c0,0.8,0.2,1.6,0.8,2.2
	c0.6,0.6,1.3,0.9,2.1,0.8h13.2c0.5,0,0.9,0.2,1.2,0.6c0.4,0.3,0.6,0.8,0.6,1.3v3.7c0,0.5-0.2,0.9-0.5,1.2c-0.4,0.3-0.8,0.4-1.3,0.5
	L264,59.5 M157.4,27.8c-0.7-0.1-1.4-0.4-1.9-0.9c-0.6-0.5-1-1.4-1-2.2V11.2c0-0.9,0.4-1.7,1-2.3c0.6-0.5,1.4-0.8,2.1-0.8h1
	c7.4,0,10.1,2.6,10.1,9.7s-2.7,9.9-10.1,9.9L157.4,27.8 M169.6,35.3L169.6,35.3c-1.6-1.8,0-2.8,1.6-3.9c3.8-2.9,5.9-7.5,5.9-14
	c0-10.8-5.7-16.5-16.5-16.5h-12.2c-0.4,0-0.9,0.2-1.2,0.5c-0.3,0.4-0.5,0.8-0.5,1.3v55.2c0,0.4,0.1,0.9,0.4,1.2
	c0.3,0.3,0.8,0.5,1.2,0.5h4.6c0.5,0,0.9-0.2,1.2-0.5c0.3-0.3,0.5-0.8,0.5-1.2V38c0-0.8,0.3-1.6,0.7-2.2h0.1c0.7-0.7,1.8-0.9,2.7-0.5
	c7.8,3.5,13,12.2,14,22.5c0.1,0.9,0.4,1.7,1.5,1.7h4.4c1,0,1.4-0.6,1.4-1.6c-0.3-8.5-3.7-16.5-9.7-22.5 M216.3,1.5
	c-0.4-0.3-0.8-0.5-1.3-0.5h-4.5c-0.5,0-0.9,0.2-1.3,0.5c-0.3,0.4-0.5,0.8-0.4,1.3v12.4C203.2,6.5,195.4,1,186.6,1h-0.2
	c-0.5,0-0.9,0.2-1.3,0.5c-0.3,0.4-0.4,0.9-0.4,1.3v55.1c0,0.4,0.1,0.8,0.4,1.2c0.4,0.3,0.8,0.5,1.3,0.5h4.5c0.5,0,0.9-0.2,1.3-0.5
	c0.3-0.4,0.5-0.8,0.5-1.3V11.2c0-0.2,0-0.4,0.1-0.6c8.9,4.2,15.5,16.5,15.8,31.1v16.2c0,0.4,0.1,0.8,0.4,1.2
	c0.4,0.3,0.8,0.5,1.3,0.5h4.5c0.1,0,0.3,0,0.4-0.1c0.3-0.1,0.6-0.2,0.9-0.4c0.3-0.4,0.4-0.9,0.4-1.3V2.6
	C216.6,2.2,216.5,1.7,216.3,1.5"/>
</svg>
